<?xml version="1.0" encoding="UTF-8"?>
<!-- Generator: Adobe Illustrator 21.0.2, SVG Export Plug-In . SVG Version: 6.00 Build 0)  -->
<svg version="1.1" id="Layer_1" xmlns="http://www.w3.org/2000/svg" xmlns:xlink="http://www.w3.org/1999/xlink" x="0px" y="0px" viewBox="0 0 80.1 41.5" style="enable-background:new 0 0 80.1 41.5;" xml:space="preserve">
<title>017C799B-9EE3-4929-95C7-783BE0538E68</title>
<path d="M40.6,14.7l3.7-7l12.6-0.9L57.3,6L45.7,5.1L48.4,0L70,0c6.6,0,11.6,2.6,9.6,10.1c-0.6,2.3-3.3,8-11.2,10.4  c1.7,0.2,5.9,2.2,5.1,7.4c-1.3,9.2-12.3,13.6-18.5,13.6l-25.5,0l-1.3-5.3l13.4-1l0.5-0.8l-14.5-1l-1.6-6.3l20.6-1.3l0.4-0.8l-37-2.5  l1.8-3.3l39.9-2.8l0.4-0.8L40.6,14.7L40.6,14.7z M57.3,16l3.7,0c2.5,0,5-1.2,5.9-3.7c0.9-2.3-0.3-4.2-1.8-4.2l-3.6,0  C61.5,8.1,57.3,16,57.3,16z M53,24l-4.4,8.3l4.2,0c2,0,5.5-1.1,6.5-4.1c1-2.8-0.8-4.2-2.1-4.2L53,24L53,24z M20.9,36.8l-2.6,4.7  L0,41.5l1.8-3.3C1.8,38.2,20.9,36.8,20.9,36.8z M22.2,0l14.7,0L38,4.5L20.4,3.3C20.4,3.3,22.2,0,22.2,0z M38.8,8.1l1.6,6.6  l-25.2-1.8l1.8-3.3L38.8,8.1L38.8,8.1z M26,27.1l-3.2,6L5.1,32l1.8-3.3L26,27.1z"/>
</svg>