<?xml version="1.0" encoding="UTF-8"?>
<!-- Generator: Adobe Illustrator 21.0.2, SVG Export Plug-In . SVG Version: 6.00 Build 0)  -->
<svg version="1.1" id="Layer_1" xmlns="http://www.w3.org/2000/svg" xmlns:xlink="http://www.w3.org/1999/xlink" x="0px" y="0px" viewBox="0 0 80 77.7" style="enable-background:new 0 0 80 77.7;" xml:space="preserve">
<title>1AA5A242-CB43-48F6-AED8-FBE8E9926CED</title>
<g>
	<path d="M74,36.3c-0.5,1-1.4,2.3-2.2,3.1H8.5c-0.5-0.6-1.6-2.1-2.1-3.1H74L74,36.3z M69.3,42.6H11c1,1.1,2,2.2,3,2.9h52   C67.3,44.7,68.5,43.7,69.3,42.6z M62.1,48.4h-16c-0.5,2.6-0.5,4.9-0.5,6.6C50.3,54.7,56.5,52.6,62.1,48.4z M79.9,15.6   c-7.3,0.5-17.7,5.4-24.4,13.3c-1.3,1.4-2.4,2.9-3.3,4.3h23.4C78.7,26.9,80.4,20.7,79.9,15.6L79.9,15.6z M34.6,55   c0.1-1.8,0.1-4.1-0.2-6.6H18.2C23.9,52.6,30.1,54.7,34.6,55z M40.2,55.5c1.7-1.8,3.4-4.1,4.9-7.1h-10   C36.8,51.4,38.3,53.8,40.2,55.5z M28.3,33.2c-0.9-1.5-2.1-3-3.3-4.3c-6.8-8-17.2-12.8-24.4-13.3c-0.5,5.1,1.1,11.3,4.2,17.7   L28.3,33.2L28.3,33.2z M50.3,33.2c0.2-1.8,0.3-3.5,0.3-5.6c0-11-4.9-22.5-10.4-27.6c-5.5,5.1-10.4,16.6-10.4,27.6   c0,2.1,0,3.7,0.3,5.6H50.3z M73.8,77.7c3.4,0,6.1-1.4,6.1-4.6c0-1.9-1.4-3.2-3.4-3.7c-2.2-0.6-5-0.5-5-1.9c0.2-1,1-1.2,2.4-1.2   c2.1,0,2.2,1.1,2.2,1.8h3.4c-0.2-2.6-2.4-4.4-5.7-4.4c-3.5,0-5.6,1.9-5.6,4.3c0,1.4,0.7,2.7,1.9,3.4c0.9,0.4,2.1,0.7,3.4,1   c1.5,0.2,2.9,0.3,3,1.4c0,0.7-0.7,1.6-2.3,1.6c-2.3,0-2.8-1.3-2.8-2.2h-3.5C67.8,75.9,70.1,77.7,73.8,77.7L73.8,77.7z M55.3,70.7   c0,2.1,1.8,3.8,3.9,3.8c2.1,0,3.7-1.8,3.7-3.8c0-2.2-1.8-3.9-3.7-3.9C57.1,66.8,55.3,68.6,55.3,70.7z M59,77.7   c-3.8,0-7.1-3.2-7.1-7c0-3.9,3.3-7,7.1-7c1.5,0,2.9,0.4,3.9,1.2v-1h3.4v13.6H63v-0.9C61.9,77.3,60.6,77.7,59,77.7z M39.7,70.7   c0,2.1,1.8,3.8,3.8,3.8c2.2,0,3.9-1.8,3.9-3.8c0-2.2-1.8-3.9-3.9-3.9C41.5,66.8,39.7,68.6,39.7,70.7z M47.5,59.2h3.4v18.2h-3.4   v-0.9c-1.2,0.8-2.6,1.2-4,1.2c-3.8,0-7-3.2-7-7c0-3.9,3.2-7,7-7c1.5,0,2.9,0.4,4,1.2C47.5,64.9,47.5,59.2,47.5,59.2z M31.7,62.6   v-3.4h3.4v3.4H31.7z M35.1,77.4h-3.4V63.9h3.4V77.4z M18.8,70.7c0,2.1,1.8,3.8,4,3.8c2.1,0,3.8-1.8,3.8-3.8c0-2.2-1.8-3.9-3.8-3.9   C20.6,66.8,18.8,68.6,18.8,70.7z M22.7,77.7c-3.8,0-7.1-3.2-7.1-7c0-3.9,3.3-7,7.1-7c1.5,0,2.9,0.4,4,1.2v-5.7h3.4v18.2h-3.4v-0.9   C25.5,77.3,24.1,77.7,22.7,77.7L22.7,77.7z M3.3,70.7c0,2.1,1.8,3.8,3.8,3.8c2.2,0,4-1.8,4-3.8c0-2.2-1.8-3.9-4-3.9   C5,66.8,3.3,68.6,3.3,70.7z M7,77.7c-3.8,0-7-3.2-7-7c0-3.9,3.2-7,7-7c1.5,0,3,0.4,4.1,1.2v-1h3.4v13.6h-3.4v-0.9   C10,77.3,8.6,77.7,7,77.7L7,77.7z M77.6,62.6c-1,0-1.7-0.8-1.7-1.7c0-1,0.8-1.7,1.7-1.7l0,0c1,0,1.7,0.7,1.8,1.7   C79.4,61.8,78.7,62.6,77.6,62.6C77.7,62.6,77.7,62.6,77.6,62.6z M77.6,59.5c-0.8,0-1.4,0.7-1.4,1.5s0.6,1.5,1.4,1.5   c0.8,0,1.5-0.7,1.5-1.5C79.1,60.1,78.4,59.5,77.6,59.5z"/>
	<path d="M78,61.9l-0.4-0.8h-0.3v0.8h-0.3V60h0.6c0.3,0,0.6,0.2,0.6,0.6c0,0.3-0.2,0.4-0.4,0.5l0.4,0.8C78.3,61.9,78,61.9,78,61.9z    M77.7,60.2h-0.4v0.7h0.4c0.2,0,0.4-0.1,0.4-0.3C78,60.4,77.9,60.2,77.7,60.2z"/>
</g>
</svg>