<?xml version="1.0" encoding="UTF-8"?>
<!-- Generator: Adobe Illustrator 21.0.2, SVG Export Plug-In . SVG Version: 6.00 Build 0)  -->
<svg version="1.1" id="Layer_1" xmlns="http://www.w3.org/2000/svg" xmlns:xlink="http://www.w3.org/1999/xlink" x="0px" y="0px" viewBox="0 0 80 14.1" style="enable-background:new 0 0 80 14.1;" xml:space="preserve">
<title>85191910-A397-44D0-B6F3-C8D8C6663395</title>
<g>
	<path d="M78,2.3c0-0.6,0.5-1,1-1c0.5,0,1,0.4,1,1c0,0.6-0.5,1-1,1C78.4,3.4,78,2.9,78,2.3C78,2.4,78,2.3,78,2.3z M79,3.2   c0.5,0,0.8-0.4,0.8-0.8c0-0.5-0.4-0.8-0.8-0.8c-0.4,0-0.8,0.4-0.8,0.8c0,0,0,0,0,0C78.2,2.8,78.5,3.2,79,3.2z M78.8,2.9h-0.2V1.8   H79c0.3,0,0.4,0.1,0.4,0.3c0,0.2-0.1,0.3-0.3,0.3l0.3,0.5h-0.2L79,2.4h-0.2V2.9z M79,2.3c0.1,0,0.3,0,0.3-0.2   c0-0.1-0.1-0.2-0.3-0.2h-0.2v0.4H79z M54.7,2.2c0-0.6,0.5-1,1-1c0.5,0,1,0.4,1,1c0,0.6-0.5,1-1,1C55.2,3.2,54.7,2.8,54.7,2.2   C54.7,2.2,54.7,2.2,54.7,2.2z M55.7,3c0.5,0,0.8-0.4,0.8-0.8c0-0.5-0.4-0.8-0.8-0.8c-0.4,0-0.8,0.4-0.8,0.8c0,0,0,0,0,0   C54.9,2.7,55.3,3,55.7,3z M55.5,2.8h-0.2V1.6h0.4c0.3,0,0.4,0.1,0.4,0.3c0,0.2-0.1,0.3-0.3,0.3l0.3,0.5H56l-0.3-0.5h-0.2   C55.5,2.3,55.5,2.8,55.5,2.8z M55.7,2.1c0.1,0,0.3,0,0.3-0.2c0-0.1-0.1-0.2-0.3-0.2h-0.2v0.4H55.7z M8.3,0.6C8.6,1.7,8.8,2.8,9.1,4   c0,0.2,0,0.4-0.2,0.5C8.8,4.6,8.6,4.7,8.5,4.7C8.2,4.7,8,4.7,7.9,4.5C7.4,3.8,7.2,2.9,6.6,2.3C6.5,2.2,6.3,2.1,6.1,2.2L6,2.3   l0.1,10.2c0,0.3,0.3,0.6,0.7,0.6c0.3-0.1,0.4-0.3,0.5-0.6l0-0.6l-0.1-5C7.1,6.7,6.6,6.7,6.6,6.3C6.6,6.1,6.8,6,7,5.9   c0.7-0.3,1.3-0.5,2-0.8c0.2,0,0.4,0,0.6,0.1l0.1,0.2l0.1,7.2c0.1,0.2,0.1,0.6,0.4,0.6c0.1,0.1,0.1,0.3,0,0.4   c-0.1,0.2-0.4,0.2-0.6,0.3H7.2c-0.2,0-0.3-0.1-0.5-0.2c-0.5,0.4-1.4,0.2-2,0.3C4,13.8,3.2,14,2.5,13.6c-0.1-0.1-0.1-0.2-0.1-0.3   C2.6,13,2.9,13.1,3,12.8l0.1-0.3l0-7.8l0-2.4C2.9,2.2,2.8,2.1,2.7,2.1c-0.3,0-0.4,0.3-0.6,0.5C1.8,3.2,1.6,3.8,1.3,4.4   C1.2,4.5,1.1,4.7,0.9,4.8c-0.3,0.1-0.5,0-0.7-0.2c-0.3-0.4,0-0.9,0-1.4l0.5-2.5C0.8,0.6,0.8,0.4,1,0.4c0.4-0.2,0.5,0.4,0.9,0.3   l5.3,0c0.3,0,0.5-0.5,0.9-0.3C8.1,0.4,8.3,0.6,8.3,0.6z M41,0.8l0.1,0.2l0,1.7l0.1,9.8c0,0.3,0.1,0.5,0.4,0.7   c0.1,0.1,0.1,0.3,0.1,0.4c-0.1,0.3-0.5,0.4-0.8,0.4l-2.2,0c-0.2,0-0.4-0.1-0.5-0.3c-0.1-0.1-0.1-0.3,0-0.5c0.2-0.1,0.5-0.3,0.5-0.6   l0-4.6c0-0.4,0-0.9,0-1.3c-0.2,0.4,0,1-0.4,1.2c-0.2,0.1-0.4,0-0.6-0.1c-0.2-0.2-0.3-0.5-0.4-0.7c-0.1-0.1-0.3,0-0.4,0   c-1.7,1.2-1,3.6-1.1,5.5c0,0.4,0.5,0.2,0.5,0.6c0,0.2-0.1,0.3-0.2,0.4c-0.2,0.2-0.4,0.1-0.6,0.2l-2.5,0c-0.2,0-0.3-0.2-0.4-0.3   c0-0.1,0-0.3,0-0.4c0.1-0.1,0.4-0.1,0.5-0.4l0-0.6l0-5.2c0-0.4-0.7-0.4-0.6-0.9l0.3-0.3c0.7-0.3,1.5-0.5,2.2-0.9   c0.3,0,0.5,0,0.7,0.2c0.1,0.4,0,0.8,0.1,1.2c0,0,0.1,0,0.1,0c0.4-0.7,1-1.4,1.9-1.4c0.3,0,0.7,0,0.9,0.4l0-0.1l0-1.9l0,0   c0-0.2,0-0.4,0-0.6c0-0.4-0.7-0.4-0.4-0.9c0.6-0.7,1.6-0.7,2.4-1.2C40.6,0.6,40.8,0.6,41,0.8z M72.1,2L72.5,2c0,0-0.6-1.3-0.8-1.9   c0.2,0,0.4,0,0.6,0c0.3,0.5,0.8,1.4,0.8,1.4S74,1,74.4,0.8c0.1,0,0.3,0.1,0.4,0.2l-1.4,1.2l0.4,1.1c0,0,1-1.4,1.4-2   c0.2,0,0.3,0.2,0.4,0.3c-0.2,0.4-0.5,0.7-0.6,1c0.6,0,1.2,0,1.7,0.1c0.1,0.2,0.3,0.4,0.4,0.6l-1.5,0.1l-0.7,1.2L76,4.4   c0,0,0.7-0.3,1.5-0.6c0.1,0.2,0.2,0.4,0.3,0.6L76.2,5l-1.4,0.3c-0.2,0.2-0.3,0.5-0.5,0.7c1.2-0.2,2.5-0.6,3.7-0.9   c0.6,1.9,0.2,4-0.8,5.6c-3.4,0.9-7-0.2-10.5,0.2l-1,0.1c-0.7-0.9-1.1-2-1.3-3.1c-0.2-1.2,0-2.6,0.4-3.6c0.1,0,1.7-0.2,1.7-0.2   l-1-1.2c0-0.2,0.2-0.3,0.3-0.5c0.5,0.5,1,1,1.4,1.6l0.5,0l-1.6-1.9c0.2-0.3,0.4-0.5,0.7-0.7l1.4,0.3c0,0,0-0.7,0-1.2   c0.3-0.2,0.6-0.3,0.9-0.4c0.3,0.5,0.5,1,0.8,1.5c0.4-0.6,0.7-1.2,1-1.8c0,0,0.1,0,0.1,0L72.1,2L72.1,2z M71.1,1.4l-0.7,1.4l0.4,1.4   l0.6-0.5l0.2-1.2C71.5,2.2,71.3,1.7,71.1,1.4z M69,1.5v0.7l0.3,0.1C69.2,2,69.1,1.7,69,1.5L69,1.5z M67.2,2.3L67.2,2.3   c0.4,0.4,1.1,1.2,1.1,1.2V2.6L67.2,2.3z M72.8,2.6l-0.3,0.2l0.1,0.2l0.3-0.3L72.8,2.6L72.8,2.6z M69,2.9l0,1.3l0.5-1.1   C69.6,3.1,69,2.9,69,2.9z M75,3.5l-0.5,0.1l-0.7,1.1l0.5,0C74.3,4.7,75,3.5,75,3.5z M72.1,4.3l0.1,1.3l1-1.3   c0.1-0.1,0.1-0.3,0.1-0.3l-0.2-0.6L72.1,4.3z M70,4.1l-0.3,0.6l0.6,0.7C70.2,5,70.1,4.6,70,4.1z M71.4,4.7L71,4.9l0,0.5l0.3,0.1   L71.4,4.7z M67.4,4.8l-0.5,0.8L68,6l0.9-0.8l-0.3-0.4C68.5,4.9,67.4,4.8,67.4,4.8z M65.2,4.9l0.9,0.4l0.3-0.5L65.2,4.9z M73.3,5.5   l-0.5,0.8l0.6-0.1l0.5-0.8L73.3,5.5L73.3,5.5z M69.5,5.7l-1.7,1.4l-0.8,0c0,0,0.3-0.4,0.4-0.6c-0.3-0.1-0.6-0.3-0.9-0.4L65.8,7   c-0.2,0-0.4,0-0.6,0.1c0,0.7,0.1,1.3,0.2,1.9c0.1,0.2,0.1,0.4,0.3,0.4c1.7,0,3.3,0.3,5,0.4V7.3c-0.1-0.2-0.3-0.4-0.4-0.6l-0.8,0.5   l-1.4,0c0,0,1.2-0.7,1.7-1C69.7,6,69.6,5.8,69.5,5.7L69.5,5.7z M65.4,5.8c-0.1,0.2-0.1,0.6-0.1,0.8c0.1-0.2,0.5-0.7,0.5-0.7   L65.4,5.8L65.4,5.8z M77.4,6.1l-0.6,0.2c0.2,0.3,0.5,1,0.5,1l-0.7,0L76,6.5c-0.3,0.1-1,0.2-1,0.2l0.3,0.5l-0.5,0.1l-0.4-0.5   c0,0-1.5,0.4-2.2,0.7l0,0.1c0,0.8,0.1,1.6,0.2,2.4l0.1,0.2c1.4,0.3,2.8,0.3,4.3,0.4l0.1-0.1c0.4-0.6,0.6-1.2,0.8-1.9   C77.7,7.8,77.8,6.8,77.4,6.1L77.4,6.1z"/>
	<path d="M23.5,0.7l0.1,0.2l0,4.4c0.2,0.3,0.4-0.2,0.6-0.2c0.6-0.2,1.4,0,1.8,0.5c0.9,1,1,2.2,1.2,3.4l0,0c0.1-1.4,0.4-2.9,1.7-3.7   c0.7-0.4,1.7-0.4,2.3,0C32.2,6,32.8,6.9,32.8,8c0,0.3,0,0.6-0.1,0.8c-0.9,0.5-2,0.8-2.9,1.2c-0.2,0.2,0,0.5,0,0.7   c0.2,0.4,0.4,1,0.9,1c0.3,0.1,0.7,0.3,0.9,0c0.3-0.3,0.1-1.1,0.7-0.9c0.3,0.1,0.5,0.2,0.6,0.4c0.2,0.8-0.2,1.5-0.5,2.1   c-0.7,0.6-1.6,0.7-2.5,0.6c-1.7-0.3-2.3-2.1-2.5-3.6c-0.1,1.4-0.2,3-1.7,3.6c-0.9,0.3-1.9,0.1-2.6-0.6C23,13.2,23,13,22.8,12.9   c-0.4,0-0.4,0.4-0.6,0.7c-0.2,0.1-0.5,0.4-0.8,0.3c-0.1-0.1-0.2-0.2-0.3-0.3c-0.3,0.4-0.8,0.2-1.2,0.3l-1.7,0   c-0.2,0-0.4-0.2-0.4-0.4c0-0.2,0.2-0.3,0.3-0.4c0.2-0.3,0.3-0.6,0.2-0.9c-0.1-1.5-0.2-3-0.4-4.5c-0.1-0.3-0.2-0.6-0.4-0.8   C17.3,6.8,17.1,7,17,7l-0.1,0.2l0,5.3c0.1,0.3,0.2,0.5,0.5,0.6c0.1,0.1,0.1,0.2,0,0.3c-0.3,0.5-1,0.2-1.4,0.3   c-0.6-0.1-1.5,0.2-1.8-0.3c0-0.1,0-0.3,0.1-0.4c0.3-0.1,0.3-0.4,0.4-0.6l0-5.5c-0.1-0.2-0.3-0.3-0.5-0.3c-0.2,0-0.4,0.2-0.5,0.4   c-0.3,0.5-0.1,1-0.1,1.5l0,4c0,0.3,0.3,0.4,0.5,0.7c0,0.2-0.1,0.4-0.3,0.5c-1,0.2-1.8,0-2.7,0.1c-0.2,0-0.5-0.1-0.6-0.3   c0-0.1-0.1-0.3,0-0.3c0.2-0.1,0.4-0.3,0.5-0.5l0.1-0.3l-0.1-5.3c-0.1-0.4-0.7-0.4-0.6-0.8c0.3-0.4,0.8-0.4,1.2-0.6   c0.4-0.1,0.8-0.3,1.1-0.5c0.3,0,0.6-0.1,0.7,0.2c0,0.2-0.1,0.5,0.1,0.6c0.3,0,0.4-0.4,0.6-0.6c0.5-0.4,1.4-0.3,2-0.1   c0.3,0.2,0.4,0.4,0.6,0.7c0.4,0,0.4-0.5,0.7-0.6c0.5-0.3,1.3-0.2,1.8,0.1C20,6.1,20,7.3,20.3,8.3c0.2,1.3,0.4,2.7,0.4,4.1   c0,0.3,0,0.7,0.4,0.8l0.1,0.1l0.1-0.1L21.1,3c0-0.4-0.3-0.7-0.5-1c0-0.1,0-0.3,0.1-0.3c0.6-0.5,1.3-0.6,2-0.9   C22.8,0.5,23.3,0.4,23.5,0.7L23.5,0.7z M29.2,6.6c-0.2,0.8-0.1,1.5,0,2.3c0.1,0.1,0.1,0.3,0.3,0.3c0.3-0.2,0.7-0.3,0.9-0.6   C31,7.8,30.4,6.9,30,6.2C29.7,6,29.3,6.3,29.2,6.6z M24.4,6.3c-0.2,0-0.3,0.2-0.4,0.3c-0.5,1.1-0.6,2.4-0.4,3.7   c0.1,0.5,0.2,1.1,0.6,1.6c0.1,0.1,0.3,0,0.4-0.1c1-1.5,0.7-3.6,0.1-5.2C24.7,6.5,24.6,6.3,24.4,6.3z M60.9,0.8l0,0.5L61.1,12   c0,0.1,0.1,0.2,0.2,0.3c0.1,0,0.3,0.1,0.3,0.2c0,0.2,0,0.4-0.1,0.5c-0.6,0.3-1.3,0.5-1.9,0.8c-0.3,0-0.6,0.3-0.9,0.1   c-0.2-0.1,0.1-0.4-0.1-0.5c-0.3,0.2-0.5,0.5-0.8,0.6c-0.7,0.1-1.4-0.2-1.9-0.6c-1.1-1.3-1.1-3.3-0.8-5c0.1-1.1,0.6-2.2,1.3-3   c0.4-0.4,0.9-0.5,1.4-0.4c0.3,0,0.4,0.3,0.7,0.4c0.1,0,0.1,0,0.1-0.1l0-2.5c-0.1-0.5-1.1-0.6-0.6-1.2c0.2-0.1,0.5,0,0.7-0.1   c0.7-0.4,1.4-0.6,2-0.9C60.8,0.5,60.9,0.6,60.9,0.8L60.9,0.8z M57.7,6.3c-0.2,0.1-0.3,0.3-0.3,0.4c-0.3,1-0.5,2.2-0.3,3.3   c0.1,0.6,0.2,1.3,0.7,1.8c0.1,0.1,0.3,0.1,0.4-0.1c0.7-1.3,0.6-2.9,0.3-4.4C58.2,7,58.1,6.5,57.7,6.3z"/>
	<path d="M53.6,6c0.3,0.4,0.4,0.9,0.5,1.4c0.3,1.6,0.5,3.3,0.6,4.9c0,0.2,0.1,0.4,0.2,0.6c0.1,0.1,0.3,0.1,0.3,0.3   c0,0.2-0.1,0.3-0.3,0.4c-0.8,0.1-1.8,0.1-2.6,0.1c-0.2,0-0.4-0.1-0.5-0.3c0-0.1,0-0.3,0.1-0.4c0.3-0.1,0.3-0.5,0.4-0.8   c0-1.6-0.3-3.3-0.8-4.9c-0.1-0.2-0.2-0.4-0.4-0.5c-0.1,0-0.3,0-0.4,0.1l0,0.2l0.1,5.3c0,0.4,0.4,0.4,0.5,0.7c0,0.2-0.1,0.3-0.3,0.4   c-0.8,0.1-1.8,0.1-2.7,0.1c-0.2,0-0.4-0.2-0.4-0.4c-0.1,0.1-0.2,0.2-0.3,0.3C47.4,14,47,14,46.6,14c-0.4-0.1-0.7-0.4-1.1-0.7h-0.2   c-0.6,0.6-1.6,1-2.4,0.6c-0.7-0.2-1.4-0.9-1.5-1.6c-0.2-1-0.1-2.2,0.7-2.8c0.7-0.7,1.5-1,2.4-1.3c0.2-0.4,0.1-0.9,0-1.3   c-0.1-0.2-0.2-0.5-0.5-0.6l-0.8-0.1c-0.1,0-0.2,0-0.2,0.1c0.1,0.2,0.4,0.2,0.4,0.5c0.1,0.3,0.1,0.8-0.2,1.1c-0.4,0.3-1,0.4-1.5,0.1   c-0.4-0.3-0.4-0.7-0.4-1.1c0-0.7,0.6-1.2,1.2-1.4c0.8-0.3,1.7-0.2,2.6-0.1c0.6,0.1,1.1,0.4,1.4,1C46.9,7.1,47,8,47.1,8.9   c0.1,1,0.1,2.1,0.2,3.2c0,0.1,0.1,0.2,0.2,0.3c0.2,0,0.4,0,0.4,0.2c0.1,0.2,0.1,0.4,0.1,0.6c0.2,0,0.4-0.2,0.4-0.3l0.1-0.3L48.5,7   c0-0.4-1.2-0.6-0.4-1.1c0.6-0.3,1.3-0.5,1.9-0.9c0.2,0,0.5,0,0.6,0.1c0.1,0.2,0,0.4,0.2,0.5c0.2-0.1,0.2-0.3,0.4-0.4   C51.6,5,51.9,4.9,52.3,5C52.9,5.2,53.3,5.5,53.6,6L53.6,6z M44.3,9.4c-0.8,0.5-0.6,1.5-0.6,2.3c0.1,0.3,0.2,0.7,0.5,0.8   c0.3,0.1,0.6,0,0.8-0.2c0-0.9-0.1-1.9-0.1-2.9C44.7,9.1,44.4,9.2,44.3,9.4L44.3,9.4z M77,11.2c-0.4,0.6-1,1.2-1.6,1.6   c-3.2,0-6.1-0.9-9.3-1.1c-0.1-0.1-0.2-0.2-0.2-0.3c2.4-0.4,4.9-0.2,7.3,0c1.3,0.1,2.5,0,3.8-0.3C77,11.1,77,11.2,77,11.2z    M72.2,12.7c0.9,0.1,1.9,0.2,2.8,0.3c-1.9,1.4-5,1.4-7,0.2c-0.5-0.3-1.1-0.7-1.6-1.2c0-0.1,0.1,0,0.2,0l1.3,0.1   C68,12.1,72.2,12.7,72.2,12.7z"/>
</g>
</svg>