<svg id="Layer_1" data-name="Layer 1" xmlns="http://www.w3.org/2000/svg" viewBox="0 0 414.57 188.71"><defs><style>.cls-1{fill:#231f20;}.cls-2{fill:#010202;}</style></defs><title>Artboard 3</title><path class="cls-1" d="M400.49,49.08a7,7,0,1,1,7.06,7,6.94,6.94,0,0,1-7.06-7m7.06,5.81a5.79,5.79,0,1,0-5.66-5.81A5.61,5.61,0,0,0,407.55,54.89Zm-1.47-1.78h-1.21v-8h3.05c1.89,0,2.83.69,2.83,2.27a2.09,2.09,0,0,1-2.08,2.21L411,53.11h-1.36l-2.12-3.48h-1.39Zm1.45-4.51c1,0,2-.07,2-1.3,0-1-.9-1.18-1.75-1.18h-1.65V48.6Z"/><path class="cls-2" d="M104.66,94.34c0-24.89,6.16-45.45,20.24-61.73V22.22a7.2,7.2,0,0,1,1.23-4.55,8.85,8.85,0,0,1,4.42-2.51V12H95.06v3.12a8.85,8.85,0,0,1,4.42,2.51,7.19,7.19,0,0,1,1.24,4.55V88.15q0,11.41-1.15,16.89a20.41,20.41,0,0,1-4.23,9.14q-8.46,9.88-29,9.88t-28.91-9.88A20,20,0,0,1,33.13,105Q32,99.57,32,88.15V22.22a7.3,7.3,0,0,1,1.26-4.6,8.3,8.3,0,0,1,4.4-2.46V12H0v3.12a8.85,8.85,0,0,1,4.42,2.51,7.19,7.19,0,0,1,1.24,4.55v74q0,13.93,3.35,24a30.51,30.51,0,0,0,12.34,16.07q15.27,10.16,44,10.16,31.44,0,46-11.75c-5-11.9-6.65-25.35-6.65-40.39"/><path class="cls-2" d="M304.14,44.9q13.69-12,34.44-12a80,80,0,0,1,21.64,3.23Q371.67,39.4,377.58,44a12.89,12.89,0,0,1,3.49,3.54,11.34,11.34,0,0,1,.88,4.73l2.81,1.49L400.26,21l-2.73-1.5q-2.71,2.29-4.75,2.3-2.8,0-9.4-2.7a145.88,145.88,0,0,0-22.84-7.26c-6.69-1.43-13.82-1.79-21.37-2.15-28.5-1.36-43.58,7.48-43.58,7.48L273.89,64l-9.06-2.88s-.11-4.43-.69-4.72c-2.08,1.84-3.78,11.41-4.41,24-.14,2.81.41,10.55.41,10.55H288.7a97.34,97.34,0,0,1-.65-10.1c.25-14.86,5.81-26.82,16.09-35.89M405.36,86.21a10,10,0,0,1,4.85-2.6V80.49H347.38a6.5,6.5,0,0,1-4.51-1.36c-1-.9-1.83-2.6-2.47-5.08h-3.12v32h3.12a10.62,10.62,0,0,1,2.48-5,6.39,6.39,0,0,1,4.52-1.4h32.78v18.57s-5.89,11.57-43.58,13.54c-22.25,1.16-36.54-9-36.54-9a4.44,4.44,0,0,0-.1.94v25.63s12,5.58,37.16,5.57c23.59,0,50.51-6.9,73.09-26v-2.53a9.82,9.82,0,0,1-4.9-2.61A7.21,7.21,0,0,1,404,119V90.92A7,7,0,0,1,405.36,86.21Z"/><path class="cls-2" d="M264.68,120H222.55c-2.59,0-4.52.63-5.81,1.88s-2.36,3.49-3.19,6.71h-4V85.89h4c.83,3.31,1.88,5.58,3.17,6.78s3.22,1.81,5.8,1.81h80.75v4.17q-4.44,1.34-6.23,3.48c-1.2,1.43-1.79,3.52-1.79,6.28v37.47q0,4.14,1.73,6.29c1.15,1.43,3.24,2.59,6.29,3.48V159q-48.46,29.67-93.94,29.67-41.22,0-67.26-21Q109.3,141.3,109.3,94.29q0-43.8,29.16-69.72Q166.12,0,212,0a125.83,125.83,0,0,1,27.48,2.88,180.7,180.7,0,0,1,29.35,9.68c5.64,2.41,10.57,4.06,13,4.06q2.61,0,6.11-3.08l3.5,2-19.7,43.23-3.83-1.55a16.27,16.27,0,0,0-2-6.77,17.21,17.21,0,0,0-4.49-4.72Q253.74,39.62,239,35.3A98.87,98.87,0,0,0,211.22,31Q184.55,31,167,47q-19.82,18.13-19.82,47.9,0,28.81,19.34,46.56,17.72,16.28,46.66,16.28A113.28,113.28,0,0,0,241,154.27a87.74,87.74,0,0,0,23.71-9.48V120"/></svg>