<?xml version="1.0" encoding="UTF-8"?>
<!-- Generator: Adobe Illustrator 21.1.0, SVG Export Plug-In . SVG Version: 6.00 Build 0)  -->
<svg version="1.1" id="Layer_1" xmlns="http://www.w3.org/2000/svg" xmlns:xlink="http://www.w3.org/1999/xlink" x="0px" y="0px" viewBox="0 0 214.8 39.7" style="enable-background:new 0 0 214.8 39.7;" xml:space="preserve">
<path d="M50.9,13.9c0-2.6-0.5-7,0.8-8.9h4.5c0.8,5.3-1.1,10.4,0.8,15.3c2.2-1.5,3.8-4.9,6.8-4.1c3,0.4,2.6,6.4,5.6,5.2  c4.5-1.9,9-6.4,14.2-5.2c-1.9,1.9-5.6,2.6-4.9,6c0.4,0.8,1.1,1.1,1.5,1.1c3,0,2.6-4.1,4.1-5.2c1.9-1.5,3,3,4.9,3.4  c3.4,0.4,4.5-5.6,8.6-5.2c2.2,0,3,3.8,4.9,4.1c2.2,0,3.8-6.4,7.1-3.8c1.5,0.8,2.2,3.4,3.4,3.8c2.6,0.4,4.5-6.4,7.1-3.8  c1.9,1.5,3.8,3.8,5.6,4.9c2.6,1.1,3.8-3.8,5.6-5.2c3-2.6,4.5,1.1,4.5,3.8c2.6-3.4,6.8-4.9,10.9-3.8c3.4,1.1,1.9,4.5,1.9,7.1  c4.1-0.4,7.1-3.8,9-8h4.9c1.5,2.8-0.8,6.9,1.1,7.2c6.8,1.9,9.8-10.5,16.9-6.8c-3,1.1-5.6,4.1-3.4,7.1c1.1,1.5,2.6,0.4,3.4-0.8  c0.4-1.5,0.4-3-0.4-4.5c4.5-0.8,8.6-2.6,13.1-1.9c1.1,0,1.1,3,2.2,3.4c2.6,0.4,3.8-3.8,6-3.4c3,0.4,3.8,4.1,6.4,5.6  c1.9,0.8,3.8-1.1,5.2-2.2c0.4,0,1.5,0,1.5,0.4c-1.5,4.5-6,8.2-10.5,6.8c-2.2-0.8-2.2-4.9-4.9-4.5s-3.8,6.4-7.1,4.5  c-3-1.9-2.2-9.8-6.4-7.5c-1.9,1.1,0.8,5.2-1.9,7.1c-4.5,3-11.2,2.2-13.1-3.4c-3,3.8-8.2,5.2-12.8,4.1c-1.9-0.8-0.8-3-1.5-4.1  c-3,2.6-7.1,4.9-11.2,4.1c-1.9,0-6,0.4-5.6-2.6c1.5,0.8,3.4,0,4.1-1.5c0.4-1.1,0.4-3-0.8-3c-8.6,0.8-7.1,13.5-7.5,20.2h-3.8  c-2.6-5.6-0.4-11.6-1.5-17.6c-1.9,3-6,5.6-9.4,4.1c-1.5-0.8-2.2-3.4-3.8-3.8c-2.6-0.4-3,4.5-5.6,4.1c-2.6,0-3.4-4.5-5.2-4.5  c-2.2,0.4-3.8,6.4-7.1,4.1c-1.5-1.1-2.6-4.1-4.1-4.1C92.5,21.7,91,25.9,88,27c-1.9,0.4-3-1.1-4.1-2.6c-1.5,1.5-3,2.2-4.9,2.6  c-3,0.8-6-1.1-6.8-4.1c-2.2,2.2-5.2,4.5-8.6,3.8c-1.9-0.8-1.9-4.5-4.1-4.1c-1.5,0.4-2.2,2.6-3.4,3.8c-1.5,1.1-3.8,0.4-4.5-1.5  C50.5,21,50.9,17.6,50.9,13.9z"/>
<path d="M160,8.6c1.5,0.4,3,0.4,3.4,1.9s-0.8,2.6-1.9,3c-1.5,0.4-3,0.4-4.1-0.4C155.1,11.2,157.4,7.9,160,8.6z"/>
<path d="M39.3,6.4c-2.3-0.3-7.7-1.1-6.6-1.1v19.5c5.6,0,9.9-1.9,15.2-3.8c-9,10.1-24,9.8-36.8,6.8C2.9,25.9-3.5,16.9,2.1,9  C6.3,3,13,0.7,19.8,0.4c9-0.8,21.4-1.1,26.6,7.9C43.8,8.2,41.9,6.7,39.3,6.4z M17.5,5.6c-2.1-0.9-8.8,0.2-12.4,5.2  c-1.4,2.1-1.9,4.9-0.8,7.1c2.6,4.9,7.9,6.4,13.1,7.1V5.6z"/>
<path d="M206,9.8c0-1.3,1.1-2.3,2.3-2.3c1.2,0,2.3,1,2.3,2.3c0,1.3-1.1,2.3-2.3,2.3C207.1,12.1,206,11.1,206,9.8z M206.5,9.8  c0-1.1,0.8-1.9,1.8-1.9c1,0,1.8,0.8,1.8,1.9c0,1.1-0.8,1.9-1.8,1.9C207.3,11.7,206.5,10.9,206.5,9.8z M207.9,11.1h-0.4V8.5h1  c0.6,0,0.9,0.2,0.9,0.7c0,0.5-0.3,0.7-0.7,0.7l0.7,1.2H209l-0.7-1.1h-0.5V11.1z M207.9,9.7V8.8h0.5c0.3,0,0.6,0.1,0.6,0.4  c0,0.4-0.3,0.4-0.6,0.4H207.9z"/>
</svg>