<?xml version="1.0" encoding="UTF-8"?>
<!-- Generator: Adobe Illustrator 22.1.0, SVG Export Plug-In . SVG Version: 6.00 Build 0)  -->
<svg version="1.1" id="Layer_1" xmlns="http://www.w3.org/2000/svg" xmlns:xlink="http://www.w3.org/1999/xlink" x="0px" y="0px" viewBox="0 0 400 400" style="enable-background:new 0 0 400 400;" xml:space="preserve">
<g>
	<path d="M13.2,310.5c0,6.2,5.4,11.5,11.7,11.5c3.4,0,6.8-1.6,9.1-4.4l0.8-1l10.7,7.4l-1,1.2c-4.7,5.8-11.9,9.2-19.6,9.2   C11.2,334.3,0,323.6,0,310.5c0-13.1,11.2-23.8,24.9-23.8c7.8,0,15,3.4,19.8,9.3l1,1.2l-10.7,7.4l-0.8-1c-2.3-2.8-5.7-4.5-9.2-4.5   C18.5,299,13.2,304.2,13.2,310.5z M139.9,287.9h12v44.9h-13.7l-18-25.1v25.1h-12v-44.9h12.3l19.4,25.3V287.9z M196.3,287.9H210   l-14.6,44.9h-19.6l-14.6-44.9h13.8l10,31.9c0.1,0.4,0.5,0.5,0.7,0.5c0.2,0,0.7,0,0.7-0.5v0.1L196.3,287.9z M307,332.8h-13.5   l-7.7-15.6c-0.3-0.4-0.8-0.5-1.4-0.5h-5.4v16.2h-12v-44.9H290c7.8,0,14.3,5.8,14.8,13.2c0.4,5.5-2.4,10.5-7.1,13.3L307,332.8z    M292.3,302.3c0-1.4-1.2-2.4-2.6-2.4h-10.6v4.8h10.6C291.1,304.7,292.3,303.7,292.3,302.3z M364.1,287.9H400v12h-23.9v4.8h21.5   v10.8h-21.5v5.4H400v12h-35.9V287.9z M354.1,319.3v0.1c0,9.5-7.9,15.1-19.2,15.1c-8.2,0-16.4-2.6-22.1-7.7l7.2-8.5   c4.6,3.6,9.8,5.6,15.2,5.6c3.4,0,5.7-1.2,5.7-3.2v-0.1c0-1.9-1.8-3-8-4.4c-9.9-2.2-17.7-5-17.7-14.5v-0.1c0-8.6,6.7-14.8,17.8-14.8   c7.9,0,13.9,2.1,18.9,6.1l-7.2,8.5c-4.5-2.7-7.9-4-12-4c-3.1,0-4.4,1.3-4.4,3v0.1c0,2.1,1.8,3,8.2,4.5   C347.3,307.2,354.1,310.6,354.1,319.3z M98.9,310.5c0,13.1-10.9,23.8-24.3,23.8c-13.4,0-24.3-10.7-24.3-23.8   c0-13.1,10.9-23.8,24.3-23.8C88.1,286.7,98.9,297.3,98.9,310.5z M86,310.5c0-6.3-5.1-11.4-11.4-11.4c-6.3,0-11.4,5.1-11.4,11.4   s5.1,11.4,11.4,11.4C81,321.8,86,316.8,86,310.5z M219.3,287.9h35.9v12h-23.9v4.8h21.5v10.8h-21.5v5.4h23.9v12h-35.9V287.9z    M150.5,149l40.3,13.1l-40.3,13.1v42.4l-24.9-34.3l-40.3,13.1l24.9-34.3l-24.9-34.3l40.3,13.1l24.9-34.3V149z M239,162.1   l-88.5,96.6h75.7l88.5-96.6l-88.5-96.6h-75.7L239,162.1z"/>
</g>
</svg>