<?xml version="1.0" encoding="UTF-8"?>
<!-- Generator: Adobe Illustrator 21.0.2, SVG Export Plug-In . SVG Version: 6.00 Build 0)  -->
<svg version="1.1" id="Layer_1" xmlns="http://www.w3.org/2000/svg" xmlns:xlink="http://www.w3.org/1999/xlink" x="0px" y="0px" viewBox="0 0 80.2 38.6" style="enable-background:new 0 0 80.2 38.6;" xml:space="preserve">
<style type="text/css">
	.st0{fill:#FFFFFF;}
</style>
<title>E127C05F-3CDB-4F1F-B31A-99890FF3B02F</title>
<g>
	<path d="M79,35.6c0.6,0,1.2,0.5,1.2,1.2c0,0.7-0.5,1.2-1.2,1.2c-0.6,0-1.2-0.5-1.2-1.2C77.9,36.1,78.4,35.6,79,35.6L79,35.6z    M79,35.8c-0.5,0-1,0.4-1,1c0,0.6,0.4,1,1,1c0.5,0,0.9-0.4,0.9-1C80,36.2,79.6,35.8,79,35.8z M78.8,37.4h-0.2v-1.3h0.5   c0.3,0,0.5,0.1,0.5,0.4c0,0.2-0.1,0.3-0.3,0.4l0.4,0.6h-0.2L79,36.8h-0.2L78.8,37.4L78.8,37.4z M78.8,36.7H79   c0.2,0,0.3-0.1,0.3-0.2c0-0.1-0.1-0.2-0.3-0.2h-0.3V36.7z"/>
	<path class="st0" d="M38.1,1.1h37.4v36.5H38.1V1.1z"/>
	<path d="M54.7,18.7h5.4V17h-5.2c-0.1,0-0.3-0.1-0.3-0.3v-2.1h5v-1.7h-5v-2.1c0-0.1,0.1-0.3,0.3-0.3h5.2V8.9h-5.4v0   c-1.1,0-1.9,0.9-1.9,2v5.9C52.8,17.8,53.6,18.7,54.7,18.7C54.7,18.7,54.7,18.7,54.7,18.7z M62.3,21.9v7.9h1.9v-7.9   c0-0.1,0.1-0.3,0.3-0.3h3.9c0.1,0,0.3,0.1,0.3,0.3v2.1h-3.1c-0.1,0-0.3,0.1-0.3,0.2l-0.7,1.5h4.1v4.1h1.9v-7.9c0-1.1-0.8-1.9-1.9-2   v0h-4.4v0C63.2,19.9,62.3,20.8,62.3,21.9z M61.1,16.8c0,1.1,0.9,1.9,1.9,2h5.6c1.1,0,1.9-0.9,1.9-2V8.9h-1.9v7.9   c0,0.1-0.1,0.3-0.3,0.3h-1.6V8.9h-1.9V17h-1.6c-0.1,0-0.3-0.1-0.3-0.3V8.9h-1.9L61.1,16.8C61.1,16.8,61.1,16.8,61.1,16.8z    M52.8,21.9v7.9h1.9v-7.9c0-0.1,0.1-0.3,0.3-0.3h4c0.1,0,0.3,0.1,0.3,0.3v1.8c0,0.1-0.1,0.3-0.3,0.3h-3c-0.1,0-0.3,0.1-0.3,0.2   L55,25.6h2.4l2,4.1h2.2l-2.2-4.1c0.9-0.2,1.7-1,1.7-1.9v-1.8c0-1.1-0.8-1.9-1.9-2v0h-4.5v0C53.6,19.9,52.8,20.8,52.8,21.9z    M44.2,21.9v5.9c0,1.1,0.9,1.9,1.9,2h5.6V28h-5.3c-0.1,0-0.3-0.1-0.3-0.3c0,0,0,0,0,0v-2.1h5.1v-1.7h-5.1v-2.1   c0-0.1,0.1-0.3,0.3-0.3h5.3v-1.7h-5.6v0C45.1,19.9,44.2,20.8,44.2,21.9z M44.2,9.6v9.1h1.9v-6l3.7,5.7c0.1,0.2,0.4,0.3,0.6,0.3H51   c0.4,0,0.7-0.3,0.7-0.7V8.9h-1.9v6l-3.7-5.7C46,9,45.8,8.9,45.5,8.9H45C44.6,8.9,44.2,9.2,44.2,9.6L44.2,9.6z"/>
	<path d="M0,0v38.6h76.7V0H0z M75.5,37.4H38.4V1.2h37.1C75.5,1.2,75.5,37.4,75.5,37.4z"/>
	<path class="st0" d="M6.7,29.4c0.1,1.1,1.1,1.5,2.2,1.1c1-0.4,9.1-3.5,10.4-4c1.7-0.7,2.7-0.8,3,0c0.5,1.3,2,1.4,3.8,0.3   c1.6-0.9,8.5-4.9,8.5-4.9s-3.2-5-3.5-5.5c-0.5-0.8-1.1-1.4-2.5-1.6l-8.4-1.5c-0.4-1-1.7-2-3.4-2.4l-11-2.7C4.8,7.9,3.9,8.6,4.1,9.8   C4.1,9.8,6.6,28.4,6.7,29.4z M33.2,21.6l-6.2,2.7c-1.6,0.7-2.9,0.6-3.4-0.5c-0.2-0.5-1.2-0.5-3.2,0.1l-9.8,2.9L10,23.4l9.6-1.8   c1.8-0.3,3-0.1,3.5,1l0.2,0.4l9.2-2.7C32.5,20.3,33.2,21.6,33.2,21.6z M31.2,18.2l0.7,1.1l-6.6,1.2l-0.9-1.8   C24.3,18.7,31.2,18.2,31.2,18.2z M28.9,15.8c0.6,0.1,1,0.4,1.2,0.7l0.3,0.5l-7-0.2l-0.8-1.7C22.6,15.1,28.4,15.8,28.9,15.8z    M11.5,11.1c0,0,0.3,1.2,0.4,1.3c0-0.7,0.6-1.1,1.4-1c0.8,0.2,2,0.4,2.5,0.5c2.2,0.4,3.2,0.8,4,2.7l2.6,6c-0.6-0.4-1.3-0.5-3.1-0.3   l-0.5,0.1L17,15.8c-0.4-1.1-0.8-1.7-2.1-1.9c-0.3,0-2.7-0.3-2.7-0.3l2.1,7.3l-4.7,0.6L7.3,10.3L11.5,11.1L11.5,11.1z"/>
</g>
</svg>