<svg id="Layer_1" data-name="Layer 1" xmlns="http://www.w3.org/2000/svg" viewBox="0 0 393.1 115.18"><title>Ellesse_B</title><path d="M348.44,195h30a3.25,3.25,0,0,0,3.2-2.67c.66-2.78-.77-9.68,6.07-22.35,0,0,5.63-8.12,6.73-9.34s2.32-5.12-1.1-8.79-17.44-7.78-29.25-7.78-23.62,3.45-30.13,7.45c-4.52,3.67-1.32,8.9-1.32,8.9s5.52,7.12,7,9.9,6.29,11.68,6.07,22A2.59,2.59,0,0,0,348.44,195Z" transform="translate(-101.11 -144.06)"/><path d="M160.59,210a31.38,31.38,0,0,0-18.12-9.25c-2.5-.5-23.12-2.75-34.62,9.13-6.5,7.25-6.62,17.25-6.62,17.25s-3.37,28.25,28.25,31.75C156,261.63,164,247.83,164,247.83s2.18-4-1.8-4.68c-1.7-.33-4.12,3.23-4.12,3.23s-7.62,9.25-22.5,7.62c-9.12-2.12-8.25-12.38-8.25-12.38v-5.87s-.12-1.75,2.12-2.37l35.5.13a2.66,2.66,0,0,0,2.25-1.62C167.72,230.38,167.84,217.63,160.59,210Zm-18.44,17.31a2.58,2.58,0,0,1-2.37,2.06h-10.5a2,2,0,0,1-1.69-2.12c0-1.94.13-17.37.13-17.37a7.3,7.3,0,0,1,7.37-5.62,6.84,6.84,0,0,1,7.06,5.69Z" transform="translate(-101.11 -144.06)"/><path d="M297.93,210a31.38,31.38,0,0,0-18.12-9.25c-2.5-.5-23.12-2.75-34.62,9.13-6.5,7.25-6.62,17.25-6.62,17.25s-3.37,28.25,28.25,31.75c26.5,2.75,34.54-11.05,34.54-11.05s2.18-4-1.8-4.68c-1.7-.33-4.12,3.23-4.12,3.23s-7.62,9.25-22.5,7.62c-9.12-2.12-8.25-12.38-8.25-12.38v-5.87s-.12-1.75,2.13-2.37l35.5.13a2.66,2.66,0,0,0,2.25-1.62C305.05,230.38,305.18,217.63,297.93,210Zm-18.44,17.31a2.58,2.58,0,0,1-2.37,2.06h-10.5a2,2,0,0,1-1.69-2.12c0-1.94.13-17.37.13-17.37a7.3,7.3,0,0,1,7.37-5.62,6.84,6.84,0,0,1,7.06,5.69Z" transform="translate(-101.11 -144.06)"/><path d="M482.93,210a31.38,31.38,0,0,0-18.12-9.25c-2.5-.5-23.12-2.75-34.62,9.13-6.5,7.25-6.62,17.25-6.62,17.25s-3.37,28.25,28.25,31.75c26.5,2.75,34.54-11.05,34.54-11.05s2.18-4-1.8-4.68c-1.7-.33-4.12,3.23-4.12,3.23s-7.62,9.25-22.5,7.62c-9.12-2.12-8.25-12.38-8.25-12.38v-5.87s-.12-1.75,2.13-2.37l35.5.13a2.66,2.66,0,0,0,2.25-1.62C490.05,230.38,490.18,217.63,482.93,210Zm-18.44,17.31a2.58,2.58,0,0,1-2.37,2.06h-10.5a2,2,0,0,1-1.69-2.12c0-1.94.13-17.37.13-17.37a7.3,7.3,0,0,1,7.37-5.62,6.84,6.84,0,0,1,7.06,5.69Z" transform="translate(-101.11 -144.06)"/><path d="M175,259.13h21s2.89-.26,2.89-2.39v-83s.22-3.18-2.07-3.19H168.74a2.39,2.39,0,0,0-1.07,3.4c.72.75,2.3,1.08,3.15,2.15a6,6,0,0,1,.71,2.31v78.31s-.28,2.53,2.89,2.42Z" transform="translate(-101.11 -144.06)"/><path d="M210.71,259.13h21s2.89-.26,2.89-2.39v-83s.22-3.18-2.07-3.19H204.49a2.39,2.39,0,0,0-1.07,3.4c.72.75,2.3,1.08,3.15,2.15a6,6,0,0,1,.71,2.31v78.31s-.28,2.53,2.89,2.42Z" transform="translate(-101.11 -144.06)"/><path d="M355.41,203.88a49.34,49.34,0,0,0-26-3.5c-19.62,2.25-21.25,19.13-21.25,19.13s-1.75,8.88,5.25,14.25c7.37,6,25.35,10.51,27.43,11.65,1.37.67,3.84,2,3.59,4.71s-2.9,3.89-5,4.15c-.87.13-8.31.73-13.64-1.51a26.87,26.87,0,0,1-11.11-7.94c-2.36-3-4.51-1.31-4.51-1.31a2.57,2.57,0,0,0-1,3.37c1,2.25,5.92,9.26,18.75,11.37,11.12,2,21.25,0,26.75-4,6.12-4,13.75-16,7-26.46-3.37-5-14.33-8.29-14.33-8.29s-14.5-5-18.12-6.62c-2.5-1-3.62-2.75-2.94-5.12,1.44-2.75,5.94-3.31,5.94-3.31s3.87-.94,12.81.94a31.24,31.24,0,0,1,8,3.73s2.73,1.49,3.81-.1C358.29,207,357.72,205.5,355.41,203.88Z" transform="translate(-101.11 -144.06)"/><path d="M411.74,203.88a49.34,49.34,0,0,0-26-3.5c-19.62,2.25-21.25,19.13-21.25,19.13s-1.75,8.88,5.25,14.25c7.37,6,25.35,10.51,27.43,11.65,1.37.67,3.84,2,3.59,4.71s-2.9,3.89-5,4.15c-.87.13-8.31.73-13.64-1.51A26.87,26.87,0,0,1,371,244.81c-2.36-3-4.51-1.31-4.51-1.31a2.57,2.57,0,0,0-1,3.37c1,2.25,5.92,9.26,18.75,11.37,11.12,2,21.25,0,26.75-4,6.12-4,13.75-16,7-26.46-3.37-5-14.33-8.29-14.33-8.29s-14.5-5-18.12-6.62c-2.5-1-3.62-2.75-2.94-5.12,1.44-2.75,5.94-3.31,5.94-3.31s3.87-.94,12.81.94a31.24,31.24,0,0,1,8,3.73s2.73,1.49,3.81-.1C414.62,207,414.06,205.5,411.74,203.88Z" transform="translate(-101.11 -144.06)"/><path d="M310.39,194.83h28.35a2.84,2.84,0,0,0,2.55-2.89,47.23,47.23,0,0,0-2.71-13.58,39.4,39.4,0,0,0-10-15.24c-4-3.8-8.28-.62-8.9,0s-5.26,4.44-9.51,15.24c-2.86,7.74-2.94,12.26-2.94,13.58S307.92,194.83,310.39,194.83Z" transform="translate(-101.11 -144.06)"/><path d="M389.39,194.83h28.35a2.84,2.84,0,0,0,2.55-2.89,47.23,47.23,0,0,0-2.71-13.58,39.4,39.4,0,0,0-10-15.24c-4-3.8-8.28-.62-8.9,0s-5.26,4.44-9.51,15.24c-2.86,7.74-2.94,12.26-2.94,13.58S386.92,194.83,389.39,194.83Z" transform="translate(-101.11 -144.06)"/><path d="M489.29,195.29a5.06,5.06,0,0,1,2.42.64,4.52,4.52,0,0,1,1.84,1.82,5,5,0,0,1,0,4.92,4.59,4.59,0,0,1-1.82,1.83,5,5,0,0,1-4.91,0,4.6,4.6,0,0,1-1.83-1.83,4.93,4.93,0,0,1,0-4.92,4.55,4.55,0,0,1,1.85-1.82A5.05,5.05,0,0,1,489.29,195.29Zm0,.81a4.2,4.2,0,0,0-2,.53,3.82,3.82,0,0,0-1.54,1.52,4.1,4.1,0,0,0,0,4.11,3.88,3.88,0,0,0,1.53,1.52,4.11,4.11,0,0,0,4.09,0,3.86,3.86,0,0,0,1.52-1.52,4.12,4.12,0,0,0,0-4.11,3.8,3.8,0,0,0-1.54-1.52A4.21,4.21,0,0,0,489.29,196.1Z" transform="translate(-101.11 -144.06)"/><path d="M489.29,195.29a5.06,5.06,0,0,1,2.42.64,4.52,4.52,0,0,1,1.84,1.82,5,5,0,0,1,0,4.92,4.59,4.59,0,0,1-1.82,1.83,5,5,0,0,1-4.91,0,4.6,4.6,0,0,1-1.83-1.83,4.93,4.93,0,0,1,0-4.92,4.55,4.55,0,0,1,1.85-1.82A5.05,5.05,0,0,1,489.29,195.29Zm0,.81a4.2,4.2,0,0,0-2,.53,3.82,3.82,0,0,0-1.54,1.52,4.1,4.1,0,0,0,0,4.11,3.88,3.88,0,0,0,1.53,1.52,4.11,4.11,0,0,0,4.09,0,3.86,3.86,0,0,0,1.52-1.52,4.12,4.12,0,0,0,0-4.11,3.8,3.8,0,0,0-1.54-1.52A4.21,4.21,0,0,0,489.29,196.1Z" transform="translate(-101.11 -144.06)"/><path d="M490.55,200a1.42,1.42,0,0,0-.3-2.71l-2.67,0v5.21h.65v-2.42h1.21a1,1,0,0,1,.9.55,8.87,8.87,0,0,1,.13,1.88h.65C491.19,200,490.55,200,490.55,200Zm-.57-.41c-.52,0-1.75,0-1.75,0v-1.75H490a.84.84,0,0,1,.9.75A.88.88,0,0,1,490,199.63Z" transform="translate(-101.11 -144.06)"/></svg>