<?xml version="1.0" encoding="UTF-8"?>
<!-- Generator: Adobe Illustrator 21.0.2, SVG Export Plug-In . SVG Version: 6.00 Build 0)  -->
<svg version="1.1" id="Layer_1" xmlns="http://www.w3.org/2000/svg" xmlns:xlink="http://www.w3.org/1999/xlink" x="0px" y="0px" viewBox="0 0 80 28.1" style="enable-background:new 0 0 80 28.1;" xml:space="preserve">
<title>F3219520-4852-4BC8-99F4-6A36E349E9E9</title>
<g>
	<g>
		<path d="M20.1,0c-4.3,0-9.1,2.9-12,5.5l0.3,0.4c4.6-3.4,11-5.7,12.8-2.4c0.9,1.8-0.7,5.4-2.9,8.3c0.5-1.3,0.2-3.6-3-3.6    C10.1,8.1,0,15.5,0,23c0,3.1,2,5,5.1,5c8.6,0,20.2-15.2,20.2-22.7C25.3,2.6,23.9,0,20.1,0z M8.1,19.9c-1.5,0-2.2-1.2-1.8-2.7    c0.8-3,5.7-7.3,9.1-7.3c2.5,0,2.3,2.4,0.8,4.4l-0.8,1C12.5,18.2,9.8,19.9,8.1,19.9z M39,8c-0.8-1.1-2.1-1.5-3-1.5h-5l-0.9,3.4h4.7    l0.5,0.1c0,0,0.4,0.1,0.7,0.4c0.2,0.3,0.2,0.7,0.1,1.3l-0.2,0.9h-3c-2.6,0-6.1,2-6.9,5.2c-0.4,1.6,0,3,0.7,4    c0.8,1,2.2,1.6,3.7,1.6h2.8l0,0h3.5l1.7-6.6l1.2-4.8C40.1,9.8,39.6,8.7,39,8L39,8z M31.1,19.9c-0.5,0-0.9-0.2-1.2-0.5    c-0.3-0.4-0.4-0.9-0.2-1.4c0.3-1.2,1.4-2.1,2.6-2.1H35l-1,3.9H31.1z M73.4,6.5c-1.4,0-2.7,0.4-3.6,1.3c-1.1,0.8-1.6,1.8-2,3.1    c-0.7,3,1.4,4.4,3.1,5.4c1.3,0.7,2.4,1.4,2.1,2.3c-0.2,0.7-0.4,1.3-2,1.3h-4.6l-0.9,3.4h5.2c1.4,0,2.7-0.3,3.7-1.2    c1.1-0.9,1.6-2.1,2-3.5c0.4-1.4,0.1-2.8-0.7-3.7c-0.7-0.8-1.7-1.4-2.6-1.9c-1.1-0.7-2.2-1.3-2-2c0.2-0.7,0.8-1.1,1.5-1.1h4.5    l0.9-3.4L73.4,6.5L73.4,6.5z M46.3,6.5c-1.4,0-2.7,0.4-3.6,1.3c-1,0.8-1.6,1.8-2,3.1c-0.7,3,1.4,4.4,3.1,5.4    c1.3,0.7,2.4,1.4,2.1,2.3c-0.2,0.7-0.4,1.3-2,1.3h-4.6l-0.9,3.4h5.2c1.4,0,2.7-0.3,3.7-1.2c1-0.9,1.6-2.1,2-3.5    c0.3-1.4,0.1-2.8-0.7-3.7c-0.7-0.8-1.7-1.4-2.6-1.9c-1.1-0.7-2.2-1.3-2-2c0.2-0.7,0.8-1.1,1.5-1.1h4.5L51,6.5L46.3,6.5L46.3,6.5z     M53.4,6.5l-4,16.8h3.4l4-16.8C56.8,6.5,53.4,6.5,53.4,6.5z M65.9,6.5c-6,0-9.2,4.3-10.2,8.4c-1.2,4.8,1.2,8.4,5.5,8.4H64l0.9-3.4    H62c-1.6,0-3.8-1.4-3-5c0.7-2.9,3.3-5,6.1-5H67l0.9-3.2H65.9z M79.3,20.6c0.3,0.3,0.4,0.6,0.4,1s-0.1,0.8-0.4,1    c-0.2,0.3-0.6,0.4-1,0.4c-0.4,0-0.7-0.1-1-0.4c-0.3-0.3-0.4-0.7-0.4-1c0-0.4,0.1-0.8,0.4-1c0.3-0.3,0.6-0.4,1-0.4    C78.7,20.2,79,20.3,79.3,20.6L79.3,20.6z M79.5,20.4c-0.3-0.3-0.7-0.5-1.1-0.5c-0.4,0-0.8,0.2-1.1,0.5c-0.3,0.3-0.5,0.7-0.5,1.2    c0,0.5,0.2,0.9,0.5,1.2s0.7,0.5,1.1,0.5c0.4,0,0.8-0.2,1.1-0.5c0.3-0.3,0.5-0.8,0.5-1.2C79.9,21.2,79.8,20.8,79.5,20.4z     M78.7,21.6c-0.1,0-0.2,0-0.3,0h-0.3v-0.7h0.3c0.2,0,0.3,0,0.4,0.1c0.1,0,0.1,0.1,0.1,0.3C78.7,21.4,78.7,21.5,78.7,21.6z     M77.8,22.5h0.3v-0.7h0.2c0.2,0,0.3,0,0.3,0.1c0.1,0.1,0.2,0.2,0.2,0.4v0.1v0.1l0,0l0,0H79l0,0v-0.1v-0.1v-0.1    c0-0.1,0-0.2-0.1-0.3c0-0.2-0.2-0.3-0.3-0.3c0.1,0,0.2,0,0.3-0.1c0.1-0.1,0.2-0.2,0.2-0.4c0-0.2-0.1-0.4-0.3-0.5    c-0.1,0-0.3,0-0.5,0h-0.6V22.5L77.8,22.5z"/>
	</g>
</g>
</svg>