<svg xmlns="http://www.w3.org/2000/svg" width="195" height="27" viewBox="0 0 195 27">
    <g fill="#FFF" fill-rule="evenodd">
        <path d="M67.563 19.692c-.876 0-1.587-.696-1.587-1.56v-4.55h2.674V7.276h-2.674L65.944 1h-7.098l.012 6.276H56v6.306h2.858v8.923c0 1.93 1.584 3.495 3.546 3.495H70v-6.308h-2.437zM91.142 19.066V0H84v23.476C84 25.418 85.595 27 87.558 27H98v-6.362h-5.265a1.581 1.581 0 0 1-1.593-1.572M184.418 7C182.53 7 181 8.546 181 10.463V26h6.85V14.75c0-.847.677-1.538 1.515-1.538H193V7h-8.582zM8.72 6.373H14V0H3.565A3.555 3.555 0 0 0 0 3.547V27h7.14v-9.61h3.792v-6.38H7.14V7.951a1.58 1.58 0 0 1 1.58-1.578M22.996 19.892c1.595 0 2.9-1.298 2.9-2.885 0-1.6-1.305-2.899-2.9-2.899a2.885 2.885 0 0 0-2.877 2.899 2.882 2.882 0 0 0 2.877 2.885M13 17.007C13 11.479 17.476 7 22.995 7A10 10 0 0 1 33 17.007C33 22.523 28.527 27 22.995 27 17.476 27 13 22.523 13 17.007M44.003 19.892a2.893 2.893 0 0 0 0-5.784 2.897 2.897 0 0 0-2.897 2.899 2.894 2.894 0 0 0 2.897 2.885M34 17.007C34 11.479 38.473 7 44.003 7 49.519 7 54 11.479 54 17.007 54 22.523 49.519 27 44.003 27 38.473 27 34 22.523 34 17.007M108.994 19.892a2.897 2.897 0 0 0 2.897-2.885 2.9 2.9 0 0 0-2.897-2.899 2.893 2.893 0 0 0 0 5.784M99 17.007C99 11.479 103.476 7 108.993 7 114.518 7 119 11.479 119 17.007c0 5.516-4.482 9.993-10.007 9.993C103.476 27 99 22.523 99 17.007M133.14 18.558a2.816 2.816 0 0 1-2.376 1.334c-1.558 0-2.82-1.297-2.82-2.885 0-1.6 1.263-2.899 2.82-2.899 1 0 1.878.534 2.376 1.339L139 11.62C137.262 8.834 134.225 7 130.764 7 125.374 7 121 11.479 121 17.007c0 5.516 4.373 9.993 9.764 9.993 3.46 0 6.498-1.842 8.236-4.616l-5.86-3.826zM192.937 24.765c.266 0 .74.052.74-.296 0-.227-.302-.27-.53-.27h-.585v.566h.375zm1.013 1.316h-.365l-.648-1.003h-.375v1.003h-.307v-2.188h.955c.39 0 .771.106.771.582 0 .426-.302.587-.695.603l.664 1.003zM194.7 25c0-.939-.786-1.688-1.696-1.688-.916 0-1.699.75-1.699 1.688 0 .943.783 1.691 1.699 1.691.91 0 1.696-.748 1.696-1.691zM191 25c0-1.114.884-2 2.003-2 1.11 0 1.997.886 1.997 2 0 1.114-.887 2-1.997 2A1.988 1.988 0 0 1 191 25zM161 27l-8.343-10.13 6.638-8.019h-7.605l-3.63 4.402V0H141v27h7.06v-5.77l.511.573L152.822 27z"/>
        <path d="M165.893 16.08c.318-.953.858-1.743 2.217-2.19 1.37-.445 2.748.264 3.342.942l-5.559 1.247zm5.115 3.511v-.013a3.246 3.246 0 0 1-3.111.47 3.246 3.246 0 0 1-1.469-1.09L179 16.154c-.027-1.154-.693-3.43-2.055-5.268-1.366-1.838-4.052-3.651-7.283-3.863-3.831-.25-6.934 1.555-8.75 4.089-1.4 1.942-1.912 3.943-1.912 5.878a10.008 10.008 0 0 0 16.064 7.968l.007-.009a10.202 10.202 0 0 0 2.374-2.57l-5.678-3.625a3.46 3.46 0 0 1-.76.837z"/>
    </g>
</svg>