<svg id="Layer_1" data-name="Layer 1" xmlns="http://www.w3.org/2000/svg" viewBox="0 0 648 101.25"><title>reebokclassic</title><path d="M445.18,11.34c.51-.07,121,70.38,120.68,70.38Q438,25,352,28.17C351.46,28.19,393.26,18.4,445.18,11.34Z"/><path d="M648,12.61C588.48,27.8,568.21,36.49,529,52.77L493.13,32.15C543.52,22.56,616.34,13.69,648,12.61Z"/><path d="M441.56,44.63c.53-.14,14.12,3.26,26.6,6.88C427.27,67.25,406.28,92,406.28,92l-40.53-4.88C382.4,71.77,407.55,53.5,441.56,44.63Z"/><path d="M484.8,56.93c.19.18,13.75,4.53,23.89,8-11.58,7.69-25.88,12.49-40,35.65-.09.15-26.41-3.62-41.61-5.79C439.75,80.81,459.11,64.53,484.8,56.93Z"/><path d="M172.19,76.35a9.29,9.29,0,0,1,3,5.94H171.8a7,7,0,0,0-2.33-4,7.21,7.21,0,0,0-4.88-1.48,7.68,7.68,0,0,0-6.14,2.7c-1.58,1.79-2.35,4.56-2.35,8.29a12.13,12.13,0,0,0,2.11,7.42,7.36,7.36,0,0,0,6.31,2.85,6.71,6.71,0,0,0,5.9-3A12.51,12.51,0,0,0,172,91h3.42a11.75,11.75,0,0,1-3.05,6.89,10.71,10.71,0,0,1-8.32,3.37,10.94,10.94,0,0,1-7.59-2.76c-2.7-2.41-4-6.18-4-11.24a14.41,14.41,0,0,1,3-9.47,11.06,11.06,0,0,1,9.06-4C167.84,73.74,170.39,74.63,172.19,76.35Z"/><path d="M186.45,74.45H190v23h13.07v3.09H186.45Z"/><path d="M218.54,89.86l4.15-11.53,4,11.53ZM211,100.54h3.61l2.83-7.82h10.26l2.7,7.82h3.82l-9.49-26.09h-3.91Z"/><path d="M246.29,92.07a7,7,0,0,0,1,3.61q1.71,2.59,5.95,2.59a9.63,9.63,0,0,0,3.48-.59,4,4,0,0,0,3.05-4,3.57,3.57,0,0,0-1.28-3.07,12.66,12.66,0,0,0-4.09-1.51L251,88.35a15.4,15.4,0,0,1-4.72-1.69,5.56,5.56,0,0,1-2.43-4.89A7.58,7.58,0,0,1,246.18,76a9.29,9.29,0,0,1,6.69-2.26,11.38,11.38,0,0,1,6.76,2c1.82,1.32,2.77,3.45,2.77,6.34h-3.32A6.68,6.68,0,0,0,258,78.84c-1-1.35-2.76-2-5.24-2-2,0-3.39.43-4.28,1.33a4.16,4.16,0,0,0-1.31,3,3,3,0,0,0,1.55,2.8,21.62,21.62,0,0,0,4.58,1.43l3.52.82a10.86,10.86,0,0,1,4,1.66,6.28,6.28,0,0,1,2.37,5.32c0,2.88-1,5-3.06,6.19a13.48,13.48,0,0,1-7.11,1.86,10.53,10.53,0,0,1-7.42-2.48,8.45,8.45,0,0,1-2.6-6.7Z"/><path d="M277.06,92.07a7.19,7.19,0,0,0,1,3.61c1.11,1.73,3.12,2.59,5.94,2.59a9.72,9.72,0,0,0,3.49-.59,4,4,0,0,0,3-4,3.64,3.64,0,0,0-1.26-3.07,13,13,0,0,0-4.09-1.51l-3.44-.78a15.66,15.66,0,0,1-4.7-1.69,5.55,5.55,0,0,1-2.42-4.89A7.67,7.67,0,0,1,277,76a9.38,9.38,0,0,1,6.7-2.26,11.36,11.36,0,0,1,6.77,2c1.86,1.32,2.78,3.45,2.78,6.34h-3.3a6.89,6.89,0,0,0-1.09-3.23c-1.06-1.35-2.79-2-5.25-2-2,0-3.41.43-4.28,1.33a4.05,4.05,0,0,0-1.28,3,2.94,2.94,0,0,0,1.53,2.8,20.32,20.32,0,0,0,4.56,1.43l3.54.82a10.77,10.77,0,0,1,3.93,1.66A6.31,6.31,0,0,1,294,93.2c0,2.88-1,5-3.07,6.19a13.57,13.57,0,0,1-7.14,1.86,10.49,10.49,0,0,1-7.4-2.48,8.56,8.56,0,0,1-2.62-6.7Z"/><path d="M306.34,74.45h3.56v26.09h-3.56Z"/><path d="M340.77,76.37a9.34,9.34,0,0,1,3,5.92h-3.42a7,7,0,0,0-2.33-4,7.21,7.21,0,0,0-4.88-1.48,7.75,7.75,0,0,0-6.16,2.7c-1.59,1.79-2.37,4.56-2.37,8.29a12.07,12.07,0,0,0,2.13,7.42,7.39,7.39,0,0,0,6.33,2.85,6.66,6.66,0,0,0,5.88-3A11.7,11.7,0,0,0,340.57,91H344a11.68,11.68,0,0,1-3,6.89,10.74,10.74,0,0,1-8.34,3.37,10.9,10.9,0,0,1-7.57-2.76c-2.7-2.41-4-6.18-4-11.24a14.56,14.56,0,0,1,3-9.47,11.08,11.08,0,0,1,9.09-4C336.39,73.74,339,74.63,340.77,76.37Z"/><path d="M295.57.94H312V27.13h6.46c6.41-.51,9.78-6.77,9.58-13.33h16.19c.1,11.57-3,17-11.81,20.15,3.56,1.15,12.28,4.74,12.28,17.79v8.87H328.35V51.24a11.2,11.2,0,0,0-11.56-10.48H312V60.61H295.57Z"/><path d="M178.16.36h16.36V47h11.56a9.61,9.61,0,0,0,9-9.91,9.56,9.56,0,0,0-9.24-9.75H198c-.08,0-.08-13.64,0-13.64h11c11.56,0,22.52,9.5,22.52,23.91S217.74,60.65,206,60.65H178.16Z"/><path d="M235.37,37.65c0-13.6,10.17-24.65,28-24.65s28,11.05,28,24.65-10.62,24.62-28,24.62C246.71,62.27,235.37,51.24,235.37,37.65Zm28,11.56a11.63,11.63,0,1,0-11.79-11.67A11.7,11.7,0,0,0,263.37,49.21Z"/><path d="M99.49,27.3,89.61,43.65h15.92l10.18-15.86v-14l-29.51,0a23.47,23.47,0,0,0,0,46.93h29.58V47.11H88.6a9.91,9.91,0,1,1,0-19.81Z"/><path d="M155.68,27.3l-9.85,16.35h15.86l10.19-15.85v-14l-29.5,0a23.47,23.47,0,0,0,0,46.93H172V47.11H144.77a9.91,9.91,0,1,1,0-19.81Z"/><path d="M47.93,40.5a.09.09,0,0,0,.07.12c4,1.88,10.79,6.72,10.79,14.7V73.5l-16.66-.08,0-13.93C42.1,50.72,38,47.4,30.1,47.1c-.32,0-9.6,0-9.6,0V33.64l14,0a9.66,9.66,0,0,0,10-9.75c0-6.9-4.7-9.86-10.17-9.86l-18.42,0V60.61H0V0H37.53C48.62,0,61.29,7.61,61.29,21c0,8.86-4.73,16.36-13.27,19.38Z"/></svg>