<?xml version="1.0" encoding="UTF-8"?>
<!-- Generator: Adobe Illustrator 21.1.0, SVG Export Plug-In . SVG Version: 6.00 Build 0)  -->
<svg version="1.1" id="Layer_1" xmlns="http://www.w3.org/2000/svg" xmlns:xlink="http://www.w3.org/1999/xlink" x="0px" y="0px" viewBox="0 0 73 23.9" style="enable-background:new 0 0 73 23.9;" xml:space="preserve">
<style type="text/css">
	.st0{fill:#E71836;}
</style>
<g>
	<path class="st0" d="M6.9,16.5l4.2-12.2h2.1L7.8,19H6L0.6,4.3h2.1L6.9,16.5z"/>
	<path class="st0" d="M14.9,5.2c0-0.3,0.1-0.6,0.3-0.8c0.2-0.2,0.5-0.3,0.8-0.3s0.6,0.1,0.8,0.3c0.2,0.2,0.3,0.5,0.3,0.8   c0,0.3-0.1,0.6-0.3,0.8c-0.2,0.2-0.5,0.3-0.8,0.3s-0.6-0.1-0.8-0.3C15,5.7,14.9,5.5,14.9,5.2z M17,19h-1.9v-11H17V19z"/>
	<path class="st0" d="M24.5,19.2c-1.5,0-2.7-0.5-3.6-1.5c-0.9-1-1.4-2.3-1.4-3.9v-0.3c0-1.1,0.2-2.1,0.6-2.9s1-1.5,1.7-2   c0.7-0.5,1.6-0.7,2.4-0.7c1.4,0,2.5,0.5,3.3,1.4c0.8,0.9,1.2,2.3,1.2,4v0.8h-7.4c0,1.1,0.3,2,0.9,2.6c0.6,0.7,1.4,1,2.3,1   c0.7,0,1.2-0.1,1.7-0.4c0.5-0.3,0.9-0.6,1.2-1.1l1.1,0.9C27.7,18.5,26.3,19.2,24.5,19.2z M24.3,9.4c-0.8,0-1.4,0.3-1.9,0.8   c-0.5,0.6-0.8,1.3-1,2.3h5.5v-0.1c-0.1-1-0.3-1.7-0.8-2.2S25.1,9.4,24.3,9.4z"/>
	<path class="st0" d="M40.7,16.5l2.1-8.4h1.9l-3.2,11h-1.5l-2.7-8.3L34.7,19h-1.5L30,8.1h1.9l2.2,8.2l2.6-8.2h1.5L40.7,16.5z"/>
	<path class="st0" d="M60.1,15.2h-6.2L52.6,19h-2l5.6-14.8h1.7L63.5,19h-2L60.1,15.2z M54.5,13.6h5L57,6.7L54.5,13.6z"/>
	<path class="st0" d="M67.3,19h-1.9V3.5h1.9V19z"/>
	<path class="st0" d="M72.3,19h-1.9V3.5h1.9V19z"/>
</g>
</svg>